PathFileType	4	(X/Y/Z)	c:\Git\1_current_projects\powerlifing_model\simulations\Athlete_03\22_07_06\dl_70_test\markers_experimental.trc
DataRate	CameraRate	NumFrames	NumMarkers	Units	OrigDataRate	OrigDataStartFrame	OrigNumFrames
200.000000	200.000000	4	59	mm	200.000000	351	2810
Frame#	Time	BL			BR			GLAB			RFHD			LFHD			C7			T6			SPINMOL			SPINM2			SPINM3			BELTOL			BELT2			BELT3			SACROL			SACR2			SACR3			LTHOL			LTH2			LTH3			LSHAOL			LSHA2			LSHA3			LHEE			LTOE			LM5			RTHOL			RTH2			RTH3			RSHAOL			RSHA2			RSHA3			RHEE			RTOE			RM5			STRN			XIPH			LACR			LUAOL			LUA2			LUA3			LLAOL			LLA2			LLA3			LWRU			RACR			RUAOL			RUA2			RUA3			RLAOL			RLA2			RLA3			RWRU			T12			USERMO0			USERMO1			USERMO2			USERMO3			USERMO4			USERMO5			
		X1	Y1	Z1	X2	Y2	Z2	X3	Y3	Z3	X4	Y4	Z4	X5	Y5	Z5	X6	Y6	Z6	X7	Y7	Z7	X8	Y8	Z8	X9	Y9	Z9	X10	Y10	Z10	X11	Y11	Z11	X12	Y12	Z12	X13	Y13	Z13	X14	Y14	Z14	X15	Y15	Z15	X16	Y16	Z16	X17	Y17	Z17	X18	Y18	Z18	X19	Y19	Z19	X20	Y20	Z20	X21	Y21	Z21	X22	Y22	Z22	X23	Y23	Z23	X24	Y24	Z24	X25	Y25	Z25	X26	Y26	Z26	X27	Y27	Z27	X28	Y28	Z28	X29	Y29	Z29	X30	Y30	Z30	X31	Y31	Z31	X32	Y32	Z32	X33	Y33	Z33	X34	Y34	Z34	X35	Y35	Z35	X36	Y36	Z36	X37	Y37	Z37	X38	Y38	Z38	X39	Y39	Z39	X40	Y40	Z40	X41	Y41	Z41	X42	Y42	Z42	X43	Y43	Z43	X44	Y44	Z44	X45	Y45	Z45	X46	Y46	Z46	X47	Y47	Z47	X48	Y48	Z48	X49	Y49	Z49	X50	Y50	Z50	X51	Y51	Z51	X52	Y52	Z52	X53	Y53	Z53	X54	Y54	Z54	X55	Y55	Z55	X56	Y56	Z56	X57	Y57	Z57	X58	Y58	Z58	X59	Y59	Z59	

352	1.755	160.8709869384766	248.4095306396485	-2316.81689453125	200.3859863281251	251.5898742675782	-93.7158889770508	551.0021972656251	750.5942382812501	-1229.970458984375	571.9506835937501	801.5803833007815	-1149.817138671875	567.4690551757814	818.8245849609377	-1302.49951171875	453.5586547851564	987.0881958007815	-1210.572265625	252.4076690673829	1071.703125	-1212.551025390625	215.5955505371094	1080.204833984375	-1212.446044921875	156.9033660888672	1079.024536132813	-1157.873901367188	153.676254272461	1077.53173828125	-1207.710815429688	61.01347732543947	1086.715698242188	-1203.633911132813	6.882697582244875	1070.045532226563	-1147.161254882813	0.3346360921859742	1074.550170898438	-1196.66796875	-101.5825881958008	998.824890136719	-1213.265869140625	-88.89221191406251	1003.013916015625	-1163.758666992188	-146.8078002929688	972.7100219726565	-1172.002075195313	1.253603458404541	733.6965942382814	-1427.364135742188	-17.18884468078614	655.8441772460939	-1421.324096679688	27.98297309875489	677.8136596679689	-1428.047607421875	77.1764602661133	348.6820983886719	-1440.244140625	40.11284637451173	279.5731811523438	-1431.302612304688	88.64144897460939	287.7944946289063	-1437.733276367188	26.71789932250977	63.03561782836915	-1352.943359375	236.9643707275391	75.45957946777345	-1354.459228515625	194.7186584472657	55.49794387817384	-1459.817260742188	18.40533447265625	699.0931396484376	-965.592712402344	88.76374816894533	661.4304809570314	-961.7996826171877	42.64461517333985	641.6986083984376	-964.2211914062502	74.28831481933595	340.1616210937501	-958.7485351562502	116.8342666625977	273.0414733886719	-960.292663574219	67.41422271728517	279.8544921875001	-967.3572998046877	25.54994773864747	62.95978164672853	-1058.87744140625	236.9949188232422	67.84625244140626	-1043.480590820313	192.5819244384766	68.10089111328126	-945.646423339844	360.9759826660157	844.4959106445315	-1215.908935546875	209.7491455078126	816.319519042969	-1201.677734375	396.8018493652345	883.974304199219	-1409.938232421875	329.6636657714844	782.5853271484377	-1486.967529296875	282.9394836425782	745.7371215820314	-1517.39208984375	318.3771972656251	717.7283325195314	-1491.981567382813	248.8272247314454	511.5264892578126	-1515.526611328125	216.5062866210938	455.530242919922	-1527.477416992188	248.9456481933594	452.4474182128907	-1489.910522460938	213.3964385986329	363.3824462890626	-1506.713256835938	410.3267517089845	874.3081665039065	-1028.764282226563	348.3040161132813	739.5172119140626	-965.3235473632815	332.2199707031251	679.2023315429689	-985.5174560546877	325.4516906738282	684.3761596679689	-936.1160278320315	278.5959777832032	497.8515625000001	-919.2636718750002	269.9304199218751	441.5281066894532	-950.3259277343752	257.8892822265626	439.5766601562501	-900.5137329101565	235.6358032226563	365.4629821777344	-898.310485839844	96.06948852539065	1062.475219726563	-1204.997314453125	0.02124870009720326	0.009989130310714247	-0.02455659955739976	0.008928329683840277	0.006672559771686794	-0.007990090176463129	0.008064839988946916	0.006557620130479338	-0.008232220076024534	0.007801330182701351	0.1714210063219071	-0.7739490270614626	0.3603259921073914	2.835000038146973	-0.3201020061969758	2.926810026168824	0	0	
353	1.76	160.865219116211	248.4091949462891	-2316.814453125	200.3821258544922	251.5906982421876	-93.7148895263672	551.0642700195314	750.2633056640626	-1229.114501953125	572.2296142578126	801.956726074219	-1149.462646484375	567.2218627929689	817.8540649414065	-1302.260131835938	453.5750122070314	986.8516845703127	-1210.800170898438	252.4886169433594	1071.50341796875	-1212.726196289063	215.6734466552735	1080.024780273438	-1212.606567382813	156.9869995117188	1078.87939453125	-1158.02490234375	153.7537841796875	1077.388427734375	-1207.859619140625	61.08838272094728	1086.599487304688	-1203.777465820313	6.950599193573	1069.95654296875	-1147.304809570313	0.4061153531074525	1074.457641601563	-1196.812622070313	-101.550048828125	998.7457275390627	-1213.407470703125	-88.86240386962892	1002.933959960938	-1163.899047851563	-146.7799224853516	972.6368408203127	-1172.138916015625	1.314326643943787	733.6437377929689	-1427.486450195313	-17.10541534423828	655.7857666015626	-1421.457763671875	28.06337547302247	677.7711791992189	-1428.171752929688	77.28285980224611	348.6596984863282	-1440.333862304688	40.1930046081543	279.5691223144532	-1431.376098632813	88.72094726562501	287.7686157226563	-1437.78955078125	26.67609024047852	63.06398773193361	-1352.935302734375	236.9652862548829	75.4594192504883	-1354.465454101563	194.7178344726563	55.49428558349611	-1459.821166992188	18.45507621765137	699.0646972656251	-965.699645996094	88.82695770263673	661.4224853515626	-961.9002685546877	42.71370315551759	641.6776733398439	-964.3167724609377	74.35593414306642	340.1697082519532	-958.8225097656252	116.8774337768555	273.0444030761719	-960.3333129882815	67.46200561523439	279.8683776855469	-967.407897949219	25.55086708068848	62.95918655395509	-1058.881591796875	236.9944610595704	67.84542846679689	-1043.48388671875	192.5901031494141	68.10280609130861	-945.6513671875002	361.0351867675782	844.2324829101565	-1216.01904296875	209.7950134277344	816.1082153320315	-1201.681640625	396.8321838378907	883.5645141601565	-1410.064331054688	329.7213745117188	782.1086425781252	-1487.029296875	283.0150756835938	745.2228393554689	-1517.435791015625	318.4626770019532	717.2440795898439	-1492.0009765625	248.9321289062501	511.0111083984376	-1515.316650390625	216.6225891113282	455.0117492675782	-1527.312622070313	248.9324798583985	451.9529113769532	-1489.618896484375	213.3946838378907	362.9053344726563	-1506.447021484375	410.3695068359376	874.0826416015627	-1028.901000976563	348.3197326660157	739.3204956054689	-965.4519653320315	332.2109985351563	679.0024414062501	-985.641296386719	325.4367370605469	684.1792602539064	-936.2456054687502	278.5009765625001	497.6708984375001	-919.4321289062502	269.7945556640626	441.3473205566407	-950.4924316406252	257.8010559082032	439.398162841797	-900.669616699219	235.5329132080079	365.3050537109376	-898.450622558594	96.13510894775393	1062.35986328125	-1205.13427734375	0.02132979966700077	0.01027559954673052	-0.02431390061974526	0.009325809776782991	0.006493300199508669	-0.008138730190694334	0.007965129800140859	0.006509140133857729	-0.00837558973580599	0.007704639807343485	0.1703920066356659	-0.7589380145072939	0.362396001815796	2.835259914398194	-0.3235349953174592	2.926569938659668	0	0	
354	1.765	160.8588562011719	248.4093017578126	-2316.81201171875	200.3784484863282	251.5914459228516	-93.71394348144533	551.1293334960939	749.9356079101564	-1228.227661132813	572.5146484375001	802.3503417968752	-1149.094970703125	566.9710083007814	816.8679809570315	-1301.9970703125	453.5913085937501	986.6135253906252	-1211.025146484375	252.5692291259766	1071.3017578125	-1212.896118164063	215.7509765625001	1079.84326171875	-1212.7607421875	157.0701141357422	1078.731567382813	-1158.169921875	153.8305816650391	1077.244140625	-1208.002685546875	61.16182708740236	1086.48095703125	-1203.917236328125	7.016614437103273	1069.864379882813	-1147.445190429688	0.4762482047080995	1074.362670898438	-1196.95458984375	-101.5205230712891	998.6656494140627	-1213.546752929688	-88.83436584472658	1002.850952148438	-1164.037719726563	-146.7534790039063	972.5614013671877	-1172.275146484375	1.371225237846375	733.5886840820314	-1427.612182617188	-17.02512931823731	655.7253417968751	-1421.593505859375	28.1404094696045	677.7266845703126	-1428.299072265625	77.38732910156251	348.6366271972657	-1440.42529296875	40.27140045166016	279.5642089843751	-1431.450073242188	88.79891967773439	287.7417297363282	-1437.84814453125	26.63804626464844	63.08911895751955	-1352.928588867188	236.9651336669922	75.46044921875001	-1354.472412109375	194.7166290283204	55.49037551879884	-1459.825561523438	18.50461769104004	699.0343627929689	-965.8067016601565	88.89056396484376	661.4130249023439	-962.001647949219	42.7837257385254	641.6549072265626	-964.4121093750002	74.42374420166017	340.1786193847657	-958.8945312500002	116.9212646484375	273.0468444824219	-960.3746337890627	67.51186370849611	279.8801879882813	-967.461853027344	25.55205345153809	62.95833587646486	-1058.885986328125	236.9937591552735	67.8441848754883	-1043.4873046875	192.5995330810547	68.10466766357423	-945.6567382812502	361.0964355468751	843.9619750976565	-1216.126953125	209.8415069580079	815.893737792969	-1201.67822265625	396.8650512695314	883.1533203125002	-1410.187622070313	329.7865600585938	781.6289062500002	-1487.094116210938	283.0967102050782	744.7059326171876	-1517.483642578125	318.5527648925782	716.7570800781251	-1492.023559570313	249.0412597656251	510.4942321777345	-1515.100708007813	216.7490234375001	454.4886474609376	-1527.136596679688	248.9309692382813	451.4601440429689	-1489.31689453125	213.407699584961	362.4256591796876	-1506.161010742188	410.4141540527345	873.8483886718752	-1029.034912109375	348.3312988281251	739.1167602539064	-965.5823974609377	332.2000732421876	678.7955322265626	-985.7652587890627	325.4204406738282	683.9741821289064	-936.3737792968752	278.3955078125001	497.4834594726564	-919.607604980469	269.6542663574219	441.1610107421876	-950.670349121094	257.7041931152344	439.2113342285157	-900.835388183594	235.4213409423829	365.1399536132813	-898.606384277344	96.1994552612305	1062.242797851563	-1205.26611328125	0.02142650075256825	0.01057420019060373	-0.02426639944314957	0.009788449853658678	0.006362310145050289	-0.008254449814558031	0.007836240343749525	0.006501439958810808	-0.008496459573507311	0.007615840062499048	0.1698530018329621	-0.7441009879112245	0.3641659915447236	2.835489988327027	-0.3270049989223481	2.926290035247803	0	0	
355	1.77	160.8519592285157	248.4098663330079	-2316.8095703125	200.3749389648438	251.5920562744141	-93.71307373046876	551.1964721679689	749.6112060546876	-1227.31298828125	572.8046875000001	802.757995605469	-1148.716674804688	566.7172241210939	815.8699951171877	-1301.711547851563	453.6077270507814	986.3731079101565	-1211.246704101563	252.6495971679688	1071.098388671875	-1213.060668945313	215.8282165527344	1079.660522460938	-1212.908447265625	157.1526794433594	1078.580688476563	-1158.308959960938	153.9066772460938	1077.098754882813	-1208.14013671875	61.23368453979494	1086.360107421875	-1204.053344726563	7.080621242523195	1069.768920898438	-1147.582397460938	0.5448830723762513	1074.26513671875	-1197.093872070313	-101.4939880371094	998.5844726562502	-1213.683715820313	-88.80823516845705	1002.764831542969	-1164.174438476563	-146.7285919189453	972.4833984375002	-1172.410766601563	1.424353241920471	733.5312500000001	-1427.7412109375	-16.94759941101075	655.6624145507814	-1421.730834960938	28.21412658691407	677.6796875000001	-1428.42919921875	77.49007415771486	348.6130065917969	-1440.518188476563	40.34818649291993	279.5585327148438	-1431.524169921875	88.8755569458008	287.7142028808594	-1437.90869140625	26.60429954528809	63.11072921752931	-1352.922973632813	236.9640502929688	75.46260833740236	-1354.47998046875	194.715072631836	55.48629379272462	-1459.830322265625	18.55425643920899	699.0018920898439	-965.9138793945315	88.95487213134767	661.4022216796876	-962.1040039062502	42.85497283935548	641.6301879882814	-964.5072021484377	74.4921340942383	340.1889038085938	-958.9629516601565	116.9663009643555	273.0488281250001	-960.4166259765627	67.56409454345705	279.8901977539063	-967.518493652344	25.55356025695801	62.95728683471681	-1058.890380859375	236.9928894042969	67.8424758911133	-1043.490844726563	192.6098785400391	68.10646057128908	-945.6626586914065	361.1596069335938	843.6845703125002	-1216.232543945313	209.8886108398438	815.6761474609377	-1201.667236328125	396.9007873535157	882.7407226562502	-1410.307373046875	329.8606872558594	781.1458129882815	-1487.161743164063	283.1860656738282	744.1861572265626	-1517.536010742188	318.6484375000001	716.2671508789064	-1492.048950195313	249.1557312011719	509.9764404296876	-1514.880004882813	216.8856201171876	453.9607849121095	-1526.949462890625	248.9409332275391	450.9690856933595	-1489.003784179688	213.4352569580079	361.9435424804688	-1505.855102539063	410.4605712890626	873.6051025390627	-1029.165893554688	348.3379516601563	738.9041748046876	-965.7146606445315	332.1872558593751	678.5806274414064	-985.8892822265627	325.4034118652344	683.7601928710939	-936.5004882812502	278.2801208496094	497.2884216308595	-919.7897949218752	269.5085449218751	440.9685363769532	-950.859313964844	257.5987854003907	439.0156555175782	-901.0109863281252	235.3013763427735	364.9670104980469	-898.7774658203127	96.26239776611331	1062.123657226563	-1205.392700195313	0.02151820063591004	0.01087049953639507	-0.02439259923994542	0.01030690036714077	0.006283309776335956	-0.008332019671797754	0.007690039929002525	0.00653199013322592	-0.008584540337324144	0.007536400109529497	0.1698099970817566	-0.7299219965934755	0.3656199872493744	2.835649967193604	-0.3303459882736207	2.925950050354004	0	0	
